<?xml version="1.0" encoding="UTF-8" standalone="no"?>
<!-- Created with Inkscape (http://www.inkscape.org/) -->

<svg
   xmlns:dc="http://purl.org/dc/elements/1.1/"
   xmlns:cc="http://creativecommons.org/ns#"
   xmlns:rdf="http://www.w3.org/1999/02/22-rdf-syntax-ns#"
   xmlns:svg="http://www.w3.org/2000/svg"
   xmlns="http://www.w3.org/2000/svg"
   xmlns:sodipodi="http://sodipodi.sourceforge.net/DTD/sodipodi-0.dtd"
   xmlns:inkscape="http://www.inkscape.org/namespaces/inkscape"
   width="616.73224"
   height="350.3194"
   id="svg2"
   version="1.1"
   inkscape:version="0.48.4 r9939"
   sodipodi:docname="t-inverted.svg">
  <defs
     id="defs4" />
  <sodipodi:namedview
     id="base"
     pagecolor="#ffffff"
     bordercolor="#666666"
     borderopacity="1.0"
     inkscape:pageopacity="0.0"
     inkscape:pageshadow="2"
     inkscape:zoom="0.98994949"
     inkscape:cx="163.14602"
     inkscape:cy="161.86078"
     inkscape:document-units="px"
     inkscape:current-layer="layer1"
     showgrid="false"
     inkscape:window-width="859"
     inkscape:window-height="644"
     inkscape:window-x="333"
     inkscape:window-y="48"
     inkscape:window-maximized="0"
     fit-margin-top="0"
     fit-margin-left="0"
     fit-margin-right="0"
     fit-margin-bottom="0" />
  <metadata
     id="metadata7">
    <rdf:RDF>
      <cc:Work
         rdf:about="">
        <dc:format>image/svg+xml</dc:format>
        <dc:type
           rdf:resource="http://purl.org/dc/dcmitype/StillImage" />
        <dc:title />
      </cc:Work>
    </rdf:RDF>
  </metadata>
  <g
     inkscape:label="Layer 1"
     inkscape:groupmode="layer"
     id="layer1"
     transform="translate(-51.633869,-243.04342)">
    <path
       style="fill:none;stroke:#000000;stroke-width:5;stroke-linecap:butt;stroke-linejoin:miter;stroke-miterlimit:4;stroke-opacity:1;stroke-dasharray:none;"
       d="m 52.965446,515.78387 c 0,0 16.689893,0 55.749124,0 21.29738,0 22.13918,-33.33503 53.28555,-33.33503 31.14637,0 30.97801,33.33503 57.32616,33.33503 26.43232,0 47.98224,0 47.98224,0 l 11.68928,43.62499 25.7161,-314.83608 18.28428,347.00738 15.15229,-79.80205 c 0,0 45.9739,0.73531 88.04427,0.73531 37.64915,0 43.46367,82.39211 80.25235,68.86705 35.71949,-13.13199 51.38632,-69.46389 99.20817,-69.46389 46.20455,0 61.3793,0 61.3793,0"
       id="path2987"
       inkscape:connector-curvature="0"
       sodipodi:nodetypes="cssscccccsssc" />
  </g>
</svg>
